<?xml version="1.0" encoding="UTF-8" standalone="no"?>
<!DOCTYPE svg PUBLIC "-//W3C//DTD SVG 1.1//EN" "http://www.w3.org/Graphics/SVG/1.1/DTD/svg11.dtd">
<svg width="100%" height="100%" viewBox="0 0 1000 1000" version="1.1" xmlns="http://www.w3.org/2000/svg" xmlns:xlink="http://www.w3.org/1999/xlink" xml:space="preserve" xmlns:serif="http://www.serif.com/" style="fill-rule:evenodd;clip-rule:evenodd;stroke-linejoin:round;stroke-miterlimit:2;">
    <g transform="matrix(1.43202,0,0,1.43202,-674.681,-266.345)">
        <circle cx="819.226" cy="534.198" r="347.073"/>
    </g>
    <g transform="matrix(1.62059,0,0,1.62059,105.495,134.783)">
        <path d="M198.836,362.636L198.795,362.636C125.419,362.636 65.846,303.063 65.846,229.686C65.846,156.31 125.419,96.737 198.795,96.737L198.836,96.737C272.194,96.759 331.745,156.323 331.745,229.686C331.745,303.05 272.194,362.614 198.836,362.636ZM198.836,329.289C253.79,329.267 298.398,284.645 298.398,229.686C298.398,174.728 253.79,130.106 198.836,130.084L198.836,329.289Z" style="fill:rgb(231,232,233);"/>
    </g>
    <g transform="matrix(1.62558,0,0,1.62558,-178.744,-135.418)">
        <path d="M488.13,418.124C470.992,427.981 451.127,433.62 429.955,433.62C365.417,433.62 313.021,381.223 313.021,316.686C313.021,252.148 365.417,199.752 429.955,199.752C494.493,199.752 546.889,252.148 546.889,316.686C546.889,337.564 541.406,357.171 531.802,374.145L621.327,463.669C627.374,469.716 627.374,479.535 621.327,485.582L599.414,507.495C593.367,513.543 583.548,513.543 577.501,507.495L488.13,418.124ZM507.741,350.083C512.152,339.835 514.595,328.543 514.595,316.686C514.595,269.972 476.669,232.046 429.955,232.046C383.241,232.046 345.315,269.972 345.315,316.686C345.315,363.4 383.241,401.326 429.955,401.326C442.115,401.326 453.68,398.756 464.135,394.13C483.649,385.496 499.298,369.7 507.741,350.083Z" style="fill:rgb(231,232,233);"/>
    </g>
    <g transform="matrix(1.62558,0,0,1.62558,-178.744,-135.418)">
        <path d="M486.63,428.41C469.607,437.069 450.347,441.953 429.955,441.953C360.818,441.953 304.688,385.823 304.688,316.686C304.688,247.549 360.818,191.418 429.955,191.418C499.092,191.418 555.223,247.549 555.223,316.686C555.223,336.78 550.48,355.775 542.056,372.613L627.219,457.777C636.519,467.076 636.519,482.176 627.219,491.475L605.306,513.388C596.007,522.687 580.907,522.687 571.608,513.388L486.63,428.41ZM488.13,418.124L577.501,507.495C583.548,513.543 593.367,513.543 599.414,507.495L621.327,485.582C627.374,479.535 627.374,469.716 621.327,463.669L531.802,374.145C541.406,357.171 546.889,337.564 546.889,316.686C546.889,252.148 494.493,199.752 429.955,199.752C365.417,199.752 313.021,252.148 313.021,316.686C313.021,381.223 365.417,433.62 429.955,433.62C451.127,433.62 470.992,427.981 488.13,418.124ZM507.741,350.083C499.298,369.7 483.649,385.496 464.135,394.13C453.68,398.756 442.115,401.326 429.955,401.326C383.241,401.326 345.315,363.4 345.315,316.686C345.315,269.972 383.241,232.046 429.955,232.046C476.669,232.046 514.595,269.972 514.595,316.686C514.595,328.543 512.152,339.835 507.741,350.083ZM500.086,346.789C504.062,337.552 506.262,327.374 506.262,316.686C506.262,274.571 472.07,240.379 429.955,240.379C387.84,240.379 353.648,274.571 353.648,316.686C353.648,358.801 387.84,392.993 429.955,392.993C440.916,392.993 451.34,390.679 460.764,386.509C478.361,378.723 492.473,364.479 500.086,346.789Z"/>
    </g>
</svg>
